<?xml version="1.0" encoding="utf-8"?>
<!-- Generator: Adobe Illustrator 17.0.0, SVG Export Plug-In . SVG Version: 6.00 Build 0)  -->
<!DOCTYPE svg PUBLIC "-//W3C//DTD SVG 1.1//EN" "http://www.w3.org/Graphics/SVG/1.1/DTD/svg11.dtd">
<svg version="1.1" id="Layer_1" xmlns="http://www.w3.org/2000/svg" xmlns:xlink="http://www.w3.org/1999/xlink" x="0px" y="0px"
	 width="14px" height="14px" viewBox="0 0 14 14" enable-background="new 0 0 14 14" xml:space="preserve">
<rect fill="#FFFFFF" width="14" height="14"/>
<path d="M2.333,7.258l2.854-1.34v0.371L2.8,7.386v0.011l2.387,1.102v0.366l-2.854-1.34V7.258z"/>
<path d="M11.667,7.552L8.813,8.864V8.498l2.46-1.102V7.386l-2.46-1.102V5.919l2.853,1.312V7.552z"/>
<g>
	<path stroke="#000000" stroke-width="0.1417" stroke-linecap="round" stroke-linejoin="round" stroke-miterlimit="10" d="
		M6.564,7.59L6.292,9.008H5.845l0.931-4.731H7.29l0.907,4.731H7.737L7.465,7.59H6.564z M7.404,7.155l-0.211-1.2
		C7.132,5.618,7.078,5.225,7.03,4.874H7.005C6.957,5.231,6.896,5.639,6.842,5.955l-0.211,1.2H7.404z"/>
</g>
</svg>
