<?xml version="1.0" encoding="utf-8"?>
<!-- Generator: Adobe Illustrator 17.0.0, SVG Export Plug-In . SVG Version: 6.00 Build 0)  -->
<!DOCTYPE svg PUBLIC "-//W3C//DTD SVG 1.1//EN" "http://www.w3.org/Graphics/SVG/1.1/DTD/svg11.dtd">
<svg version="1.1" id="Layer_1" xmlns="http://www.w3.org/2000/svg" xmlns:xlink="http://www.w3.org/1999/xlink" x="0px" y="0px"
	 width="14px" height="14px" viewBox="0 0 14 14" enable-background="new 0 0 14 14" xml:space="preserve">
<g>
	<polygon points="-0.425,8.561 3.224,11.495 3.224,9.786 1.133,8.133 3.224,6.486 3.224,4.769 -0.425,7.704 	"/>
	<polygon points="10.776,4.769 10.776,6.486 12.867,8.133 10.776,9.786 10.776,11.495 14.425,8.561 14.425,7.704 	"/>
	<path d="M7.879,2.355C7.851,2.226,7.735,2.133,7.603,2.133H6.451c-0.132,0-0.247,0.092-0.276,0.221L4.09,11.521
		c-0.019,0.084,0.001,0.172,0.055,0.239s0.135,0.106,0.222,0.106h1.001c0.133,0,0.248-0.092,0.277-0.222L6.08,9.75h1.811
		l0.437,1.895c0.028,0.13,0.144,0.222,0.276,0.222h1.03c0.005,0,0.01,0,0.015,0c0.156,0,0.283-0.127,0.283-0.283
		c0-0.053-0.015-0.102-0.039-0.144L7.879,2.355z M7.661,8.438H6.323c0,0,0.629-3.539,0.668-3.75
		C7.028,4.894,7.661,8.438,7.661,8.438z"/>
</g>
</svg>
